:SAMPLES-PER-SECOND 30
:FRAME-RANGE 1-2009
:FULLY-SPECIFIED
:DEGREES
1947
root  15.7332 39.1954 -7.30518 7.32037 -78.3564 -7.19405
RightUpLeg  -24.0342 -1.81405 8.60331
RightLeg  11.3444 -10.0011 -1.52287
RightFoot  -2.89541 -1.0981 14.5305
RightToes  4.71047e-010 1.2921e-014 -6.02303e-014
Spine  8.1736 -4.53692 -8.26296
Spine1  2.73608 -6.10073 5.0791
HEad  7.91557 3.27576 -2.2896
LeftShoulder1  1.50637 -0.953177 -27.6924
LeftArm  21.8575 1.52205 -21.5304
LeftForeArm  -9.89768 -2.15587 -19.9447
LeftHand  0.140291 2.37468 -6.04822
RightShoulder  3.50751 2.37453 52.2976
RightArm  34.5108 -23.4512 4.50084
RightForeArm  31.2499 1.05257 18.1361
RightHand  -4.82381 11.2596 -33.0404
LeftUpLeg  4.26861 7.14077 -4.21629
LeftLeg  10.971 9.27538 -0.93567
LeftFoot  -17.2627 0.241868 2.67181
LeftToes  2.15783e-011 -7.56106e-012 -8.20802e-012
1948
root  14.9686 38.96 -6.49423 4.45319 -75.1048 -4.45419
RightUpLeg  -22.7078 2.80083 6.55861
RightLeg  5.43014 -12.5513 1.1343
RightFoot  -2.27168 -1.24653 15.4334
RightToes  4.71047e-010 1.2921e-014 -6.02303e-014
Spine  7.89261 -4.52199 -7.16745
Spine1  2.761 -5.87607 4.67194
HEad  8.56071 2.38739 -2.37014
LeftShoulder1  1.51377 -0.985637 -27.611
LeftArm  21.8166 -0.715726 -22.0195
LeftForeArm  -11.3413 -1.99123 -20.0226
LeftHand  0.185414 1.89508 -6.62836
RightShoulder  3.73637 2.85538 51.507
RightArm  15.0151 -19.2826 4.71745
RightForeArm  49.865 -3.37533 16.6785
RightHand  -4.52402 11.2651 -31.0991
LeftUpLeg  6.11513 6.99759 -4.90854
LeftLeg  10.9982 6.55232 -1.51123
LeftFoot  -18.6763 0.353769 3.76725
LeftToes  2.15783e-011 -7.56106e-012 -8.20802e-012
1949
root  14.1392 38.6715 -5.66595 3.21967 -71.8028 -3.39571
RightUpLeg  -21.8864 4.87409 5.86861
RightLeg  2.84971 -11.8835 1.89607
RightFoot  -1.45845 -1.32896 15.173
RightToes  4.71047e-010 1.2921e-014 -6.02303e-014
Spine  7.66634 -4.48236 -6.18331
Spine1  2.63559 -5.73975 4.51259
HEad  9.23065 1.29999 -2.51836
LeftShoulder1  1.55794 -1.12267 -27.5673
LeftArm  18.4115 -2.745 -22.9363
LeftForeArm  -8.18029 -1.89221 -19.6656
LeftHand  0.225484 1.271 -6.64392
RightShoulder  3.71483 2.9853 50.2052
RightArm  0.224018 -15.2794 4.99021
RightForeArm  60.9112 -6.19193 14.3562
RightHand  -2.88752 10.4484 -21.2732
LeftUpLeg  7.98545 6.46915 -5.60429
LeftLeg  11.3879 4.2429 -1.29681
LeftFoot  -20.1195 0.477696 4.64525
LeftToes  2.15783e-011 -7.56106e-012 -8.20802e-012
1950
root  13.2377 38.3776 -4.80141 2.40729 -68.4816 -2.72263
RightUpLeg  -21.3203 5.37906 5.91723
RightLeg  3.64388 -9.78591 1.16855
RightFoot  -0.866613 -1.34354 14.5203
RightToes  4.71047e-010 1.2921e-014 -6.02303e-014
Spine  7.13485 -4.53825 -5.66885
Spine1  2.96518 -5.91134 4.92925
HEad  9.78371 0.334228 -2.62037
LeftShoulder1  1.56778 -1.14894 -27.5895
LeftArm  12.2352 -4.0941 -24.1252
LeftForeArm  -1.14824 -2.49858 -18.71
LeftHand  0.274049 0.524578 -6.67332
RightShoulder  3.56951 2.93716 48.6086
RightArm  -7.04279 -11.1029 5.4384
RightForeArm  58.6727 -7.09595 12.6897
RightHand  0.200641 5.60075 1.79422
LeftUpLeg  9.99174 6.26467 -5.87711
LeftLeg  11.9317 1.56563 -1.44521
LeftFoot  -21.4876 0.608823 5.39789
LeftToes  2.15783e-011 -7.56106e-012 -8.20802e-012
1951
root  12.3135 38.1851 -3.8935 3.59924 -65.2728 -4.03156
RightUpLeg  -21.2101 5.34888 6.94181
RightLeg  6.45293 -7.59591 0.440555
RightFoot  1.69944 -1.01313 8.94849
RightToes  4.71047e-010 1.2921e-014 -6.02303e-014
Spine  6.53644 -4.63638 -3.91267
Spine1  3.28045 -6.12287 5.29752
HEad  10.1929 -0.850448 -2.89646
LeftShoulder1  1.62546 -1.27178 -27.9415
LeftArm  11.5915 -4.85671 -25.5608
LeftForeArm  1.52111 -5.17905 -17.5809
LeftHand  0.285282 0.0128016 -6.21006
RightShoulder  3.13168 2.35969 46.8386
RightArm  -9.30396 -6.8892 5.93679
RightForeArm  59.1369 -7.05028 11.9311
RightHand  0.159676 5.05401 1.46721
LeftUpLeg  12.1249 6.33258 -5.14974
LeftLeg  11.9653 -1.14921 -1.51459
LeftFoot  -22.1886 0.697859 5.9382
LeftToes  2.15783e-011 -7.56106e-012 -8.20802e-012
1952
root  11.3651 38.1725 -3.00675 6.05933 -62.5049 -6.82027
RightUpLeg  -21.8876 5.94718 8.32712
RightLeg  9.68885 -8.794 -0.71995
RightFoot  8.85084 0.264705 -1.1441
RightToes  4.71047e-010 1.2921e-014 -6.02303e-014
Spine  6.09212 -4.46812 -1.38773
Spine1  3.78099 -6.15214 6.01562
HEad  10.2504 -1.82882 -3.46904
LeftShoulder1  1.67668 -1.36148 -28.3787
LeftArm  12.5145 -5.26844 -27.4062
LeftForeArm  3.39646 -8.06799 -16.1898
LeftHand  0.282413 -0.500325 -5.54822
RightShoulder  2.47108 1.23935 45.6981
RightArm  -9.99024 -2.28974 6.04702
RightForeArm  56.8149 -7.14373 12.0428
RightHand  0.157305 4.11701 1.64623
LeftUpLeg  14.314 6.93943 -3.08282
LeftLeg  11.8379 -4.22243 -1.68725
LeftFoot  -21.8752 0.613629 5.22527
LeftToes  2.15783e-011 -7.56106e-012 -8.20802e-012
1953
root  10.4054 38.0535 -2.03178 8.33722 -61.2693 -9.35649
RightUpLeg  -23.322 6.74611 9.54335
RightLeg  16.6787 -9.64164 -3.34801
RightFoot  4.95144 0.198266 -1.14762
RightToes  4.71047e-010 1.2921e-014 -6.02303e-014
Spine  6.05039 -4.11013 1.96155
Spine1  3.27537 -5.35588 5.1595
HEad  10.1106 -2.13477 -4.02617
LeftShoulder1  1.69928 -1.32549 -29.1192
LeftArm  18.8614 -5.24289 -28.9129
LeftForeArm  -0.796105 -12.3574 -14.0951
LeftHand  0.203643 -0.767547 -3.78409
RightShoulder  2.97082 2.2097 45.5691
RightArm  -8.66307 0.478245 5.03435
RightForeArm  48.2598 -7.40399 13.3272
RightHand  0.172692 3.07221 2.14046
LeftUpLeg  14.6211 8.55259 -1.08873
LeftLeg  15.6369 -7.03591 -2.25414
LeftFoot  -21.6247 0.424676 3.27456
LeftToes  2.15783e-011 -7.56106e-012 -8.20802e-012
1954
root  9.52885 38.0881 -1.10854 8.36823 -60.4116 -9.7986
RightUpLeg  -22.828 5.50708 9.57827
RightLeg  20.5032 -8.87842 -3.86494
RightFoot  1.61344 0.114742 -0.913167
RightToes  4.71047e-010 1.2921e-014 -6.02303e-014
Spine  6.35919 -3.83508 3.78294
Spine1  3.40205 -4.86461 5.07391
HEad  10.0926 -1.56775 -4.60444
LeftShoulder1  1.70022 -1.26061 -29.6267
LeftArm  21.0846 -3.82511 -30.806
LeftForeArm  -2.61818 -15.4652 -11.7112
LeftHand  0.17476 -1.20117 -2.97872
RightShoulder  4.63015 5.61771 44.3895
RightArm  -8.46992 0.118038 4.85736
RightForeArm  37.707 -7.59557 14.0704
RightHand  0.155745 1.04735 2.71526
LeftUpLeg  13.9078 10.6495 0.395933
LeftLeg  21.6175 -9.64196 -3.85963
LeftFoot  -18.5375 0.143616 0.515106
LeftToes  2.15783e-011 -7.56106e-012 -8.20802e-012
1955
root  8.68918 38.1912 -0.27306 8.60754 -57.9654 -9.64003
RightUpLeg  -22.3566 3.78977 9.26711
RightLeg  22.5176 -9.29753 -4.42879
RightFoot  -1.30289 0.0090419 -0.203833
RightToes  4.71047e-010 1.2921e-014 -6.02303e-014
Spine  5.84676 -3.90398 5.13033
Spine1  3.32298 -4.87217 5.79334
HEad  11.0434 -1.74973 -4.71918
LeftShoulder1  1.70966 -1.25438 -29.8756
LeftArm  23.2619 -2.43859 -33.1076
LeftForeArm  -4.72611 -17.5313 -9.93204
LeftHand  0.206075 -0.690071 -3.88787
RightShoulder  5.34669 7.32266 43.1108
RightArm  -10.9915 1.90455 5.46039
RightForeArm  29.6834 -7.90747 13.9397
RightHand  0.108917 -0.636872 2.76893
LeftUpLeg  9.53879 10.9724 2.25105
LeftLeg  31.5949 -11.8472 -7.42706
LeftFoot  -12.0189 0.0451796 -4.53575
LeftToes  2.15783e-011 -7.56106e-012 -8.20802e-012
1956
root  7.91359 38.2616 0.483012 9.17944 -55.5634 -10.0031
RightUpLeg  -21.4684 1.20773 9.39982
RightLeg  23.6464 -8.8564 -4.40756
RightFoot  -3.84161 -0.0746993 0.740932
RightToes  4.71047e-010 1.2921e-014 -6.02303e-014
Spine  5.8599 -3.5809 7.68353
Spine1  2.50732 -4.02148 5.27682
HEad  12.3554 -3.12943 -4.48248
LeftShoulder1  1.71391 -1.31386 -29.515
LeftArm  26.3971 -1.77054 -35.6163
LeftForeArm  -6.11552 -18.4046 -9.22066
LeftHand  0.231877 -0.833821 -4.26566
RightShoulder  5.66471 8.20729 42.1617
RightArm  -13.7863 4.37665 6.21091
RightForeArm  22.42 -8.03208 13.2874
RightHand  0.0927162 -0.645438 2.37547
LeftUpLeg  3.61966 10.6985 4.76764
LeftLeg  42.9087 -13.1289 -12.3919
LeftFoot  -3.78007 1.02735 -15.1326
LeftToes  2.15783e-011 -7.56106e-012 -8.20802e-012
1957
root  7.21235 38.2164 1.17291 9.4259 -53.8879 -10.6945
RightUpLeg  -20.3191 -0.238691 9.60805
RightLeg  25.275 -8.79028 -4.53789
RightFoot  -6.39231 -0.119188 1.75262
RightToes  4.71047e-010 1.2921e-014 -6.02303e-014
Spine  6.61845 -3.10449 10.6932
Spine1  1.88885 -2.74063 4.23136
HEad  13.251 -4.4129 -4.05577
LeftShoulder1  1.71304 -1.31596 -29.4809
LeftArm  30.7988 -0.110941 -36.873
LeftForeArm  -9.70463 -20.7817 -7.17616
LeftHand  0.286729 -0.862885 -5.26533
RightShoulder  6.41555 9.78456 42.066
RightArm  -15.1184 6.96606 6.13352
RightForeArm  18.7515 -4.70944 13.3549
RightHand  0.0887515 -1.12972 2.61521
LeftUpLeg  -1.92539 10.8706 7.36364
LeftLeg  52.4099 -12.4223 -16.3186
LeftFoot  5.01785 3.24469 -22.5283
LeftToes  2.15783e-011 -7.56106e-012 -8.20802e-012
